# xmcd CD database file
#
# Track frame offsets:
#	150
#	19183
#	33025
#	50702
#	63231
#	75783
#	93078
#	106618
#	120008
#	133236
#	147375
#	164390
#	181875
#
# Disc length: 2571 seconds
#
# Revision: 0
# Processed by: cddbd v1.5.1PL0 Copyright (c) Steve Scherf et al.
# Submitted via: CDex 1.51
#
DISCID=950a090d
DTITLE=Laura Fygi - The Very Best Time Of Year
DYEAR=2004
DGENRE=Jazz
TTITLE0=Have Yourself A Merry Christmas
TTITLE1=The Christmas Waltz
TTITLE2=What are You Doing New Year's Eve
TTITLE3=Sleigh Ride
TTITLE4=The Verry Best of Year
TTITLE5=Winter Wonderland
TTITLE6=Christmas Morning
TTITLE7=Once A Year Miracle
TTITLE8=A Song For Christmas
TTITLE9=Merry Christmas Darling
TTITLE10=Christmas Time Is Here
TTITLE11=The Christmas Song
TTITLE12=Noel A Paris
EXTD=YEAR: 2004
EXTT0=
EXTT1=
EXTT2=
EXTT3=
EXTT4=
EXTT5=
EXTT6=
EXTT7=
EXTT8=
EXTT9=
EXTT10=
EXTT11=
EXTT12=
PLAYORDER=
